<svg width="33" height="32" viewBox="0 0 33 32" fill="none" xmlns="http://www.w3.org/2000/svg">
<path d="M14.75 31.75V17.7937C12.8833 17.7937 11.0896 17.4365 9.36875 16.7219C7.64792 16.0073 6.13125 14.9937 4.81875 13.6812C3.50625 12.3687 2.5 10.8521 1.8 9.13125C1.1 7.41042 0.75 5.61667 0.75 3.75V0.25H4.25C6.0875 0.25 7.86667 0.607292 9.5875 1.32187C11.3083 2.03646 12.825 3.05 14.1375 4.3625C15.0417 5.26667 15.7927 6.25833 16.3906 7.3375C16.9885 8.41667 17.4479 9.56875 17.7687 10.7937C17.9146 10.5896 18.075 10.3927 18.25 10.2031C18.425 10.0135 18.6146 9.81667 18.8188 9.6125C20.1313 8.3 21.6479 7.28646 23.3687 6.57188C25.0896 5.85729 26.8833 5.5 28.75 5.5H32.25V9C32.25 10.8667 31.8927 12.6604 31.1781 14.3812C30.4635 16.1021 29.45 17.6187 28.1375 18.9312C26.825 20.2437 25.3156 21.25 23.6094 21.95C21.9031 22.65 20.1167 23 18.25 23V31.75H14.75ZM14.75 14.25C14.75 12.85 14.4802 11.5156 13.9406 10.2469C13.401 8.97812 12.6354 7.84792 11.6438 6.85625C10.6521 5.86458 9.52187 5.09896 8.25312 4.55937C6.98438 4.01979 5.65 3.75 4.25 3.75C4.25 5.15 4.5125 6.49167 5.0375 7.775C5.5625 9.05833 6.32083 10.1958 7.3125 11.1875C8.30417 12.1792 9.44167 12.9375 10.725 13.4625C12.0083 13.9875 13.35 14.25 14.75 14.25ZM18.25 19.5C19.65 19.5 20.9844 19.2375 22.2531 18.7125C23.5219 18.1875 24.6521 17.4292 25.6437 16.4375C26.6354 15.4458 27.401 14.3083 27.9406 13.025C28.4802 11.7417 28.75 10.4 28.75 9C27.35 9 26.0083 9.26979 24.725 9.80937C23.4417 10.349 22.3042 11.1146 21.3125 12.1062C20.3208 13.0979 19.5625 14.2281 19.0375 15.4969C18.5125 16.7656 18.25 18.1 18.25 19.5Z" fill="white"/>
</svg>
