<svg width="35" height="36" viewBox="0 0 35 36" fill="none" xmlns="http://www.w3.org/2000/svg">
<path d="M12.25 21.9375C11.6375 21.9375 11.1198 21.726 10.6969 21.3031C10.274 20.8802 10.0625 20.3625 10.0625 19.75C10.0625 19.1375 10.274 18.6198 10.6969 18.1969C11.1198 17.774 11.6375 17.5625 12.25 17.5625C12.8625 17.5625 13.3802 17.774 13.8031 18.1969C14.226 18.6198 14.4375 19.1375 14.4375 19.75C14.4375 20.3625 14.226 20.8802 13.8031 21.3031C13.3802 21.726 12.8625 21.9375 12.25 21.9375ZM22.75 21.9375C22.1375 21.9375 21.6198 21.726 21.1969 21.3031C20.774 20.8802 20.5625 20.3625 20.5625 19.75C20.5625 19.1375 20.774 18.6198 21.1969 18.1969C21.6198 17.774 22.1375 17.5625 22.75 17.5625C23.3625 17.5625 23.8802 17.774 24.3031 18.1969C24.726 18.6198 24.9375 19.1375 24.9375 19.75C24.9375 20.3625 24.726 20.8802 24.3031 21.3031C23.8802 21.726 23.3625 21.9375 22.75 21.9375ZM17.5 32C21.4083 32 24.7188 30.6437 27.4312 27.9312C30.1437 25.2188 31.5 21.9083 31.5 18C31.5 17.3 31.4562 16.6219 31.3687 15.9656C31.2812 15.3094 31.1208 14.675 30.8875 14.0625C30.275 14.2083 29.6625 14.3177 29.05 14.3906C28.4375 14.4635 27.7958 14.5 27.125 14.5C24.4708 14.5 21.9625 13.9312 19.6 12.7937C17.2375 11.6562 15.225 10.0667 13.5625 8.025C12.6292 10.3 11.2948 12.276 9.55937 13.9531C7.82396 15.6302 5.80417 16.8917 3.5 17.7375V18C3.5 21.9083 4.85625 25.2188 7.56875 27.9312C10.2812 30.6437 13.5917 32 17.5 32ZM17.5 35.5C15.0792 35.5 12.8042 35.0406 10.675 34.1219C8.54583 33.2031 6.69375 31.9562 5.11875 30.3813C3.54375 28.8062 2.29688 26.9542 1.37812 24.825C0.459375 22.6958 0 20.4208 0 18C0 15.5792 0.459375 13.3042 1.37812 11.175C2.29688 9.04583 3.54375 7.19375 5.11875 5.61875C6.69375 4.04375 8.54583 2.79688 10.675 1.87812C12.8042 0.959375 15.0792 0.5 17.5 0.5C19.9208 0.5 22.1958 0.959375 24.325 1.87812C26.4542 2.79688 28.3062 4.04375 29.8813 5.61875C31.4562 7.19375 32.7031 9.04583 33.6219 11.175C34.5406 13.3042 35 15.5792 35 18C35 20.4208 34.5406 22.6958 33.6219 24.825C32.7031 26.9542 31.4562 28.8062 29.8813 30.3813C28.3062 31.9562 26.4542 33.2031 24.325 34.1219C22.1958 35.0406 19.9208 35.5 17.5 35.5ZM15.1375 4.21875C16.3625 6.26042 18.025 7.90104 20.125 9.14062C22.225 10.3802 24.5583 11 27.125 11C27.5333 11 27.9271 10.9781 28.3062 10.9344C28.6854 10.8906 29.0792 10.8396 29.4875 10.7812C28.2625 8.73958 26.6 7.09896 24.5 5.85938C22.4 4.61979 20.0667 4 17.5 4C17.0917 4 16.6979 4.02187 16.3188 4.06562C15.9396 4.10938 15.5458 4.16042 15.1375 4.21875ZM4.24375 13.5813C5.73125 12.7354 7.02917 11.6417 8.1375 10.3C9.24583 8.95833 10.0771 7.45625 10.6312 5.79375C9.14375 6.63958 7.84583 7.73333 6.7375 9.075C5.62917 10.4167 4.79792 11.9187 4.24375 13.5813Z" fill="white"/>
</svg>
