<svg width="39" height="35" viewBox="0 0 39 35" fill="none" xmlns="http://www.w3.org/2000/svg">
<path d="M19.2812 31.5C19.3978 31.5 19.5145 31.4708 19.6312 31.4125C19.7478 31.3542 19.8353 31.2958 19.8937 31.2375L34.2437 16.8875C34.5937 16.5375 34.8489 16.1437 35.0093 15.7063C35.1697 15.2688 35.2499 14.8313 35.2499 14.3938C35.2499 13.9271 35.1697 13.4823 35.0093 13.0594C34.8489 12.6365 34.5937 12.2646 34.2437 11.9437L26.8062 4.50625C26.4853 4.15625 26.1135 3.90104 25.6905 3.74062C25.2676 3.58021 24.8228 3.5 24.3562 3.5C23.9187 3.5 23.4812 3.58021 23.0437 3.74062C22.6062 3.90104 22.2124 4.15625 21.8624 4.50625L21.3812 4.9875L24.6187 8.26875C25.0562 8.67708 25.377 9.14375 25.5812 9.66875C25.7853 10.1937 25.8874 10.7479 25.8874 11.3313C25.8874 12.5562 25.4718 13.5844 24.6405 14.4156C23.8093 15.2469 22.7812 15.6625 21.5562 15.6625C20.9728 15.6625 20.4114 15.5604 19.8718 15.3562C19.3322 15.1521 18.8583 14.8458 18.4499 14.4375L15.1687 11.2L7.51242 18.8562C7.42492 18.9438 7.3593 19.0385 7.31555 19.1406C7.2718 19.2427 7.24992 19.3521 7.24992 19.4688C7.24992 19.7021 7.33742 19.9135 7.51242 20.1031C7.68742 20.2927 7.89159 20.3875 8.12492 20.3875C8.24159 20.3875 8.35825 20.3583 8.47492 20.3C8.59159 20.2417 8.67909 20.1833 8.73742 20.125L14.6874 14.175L17.1374 16.625L11.2312 22.575C11.1437 22.6625 11.078 22.7573 11.0343 22.8594C10.9905 22.9615 10.9687 23.0708 10.9687 23.1875C10.9687 23.4208 11.0562 23.625 11.2312 23.8C11.4062 23.975 11.6103 24.0625 11.8437 24.0625C11.9603 24.0625 12.077 24.0333 12.1937 23.975C12.3103 23.9167 12.3978 23.8583 12.4562 23.8L18.4062 17.8937L20.8562 20.3438L14.9499 26.2937C14.8624 26.3521 14.7968 26.4396 14.753 26.5562C14.7093 26.6729 14.6874 26.7896 14.6874 26.9062C14.6874 27.1396 14.7749 27.3438 14.9499 27.5187C15.1249 27.6938 15.3291 27.7812 15.5624 27.7812C15.6791 27.7812 15.7885 27.7594 15.8905 27.7156C15.9926 27.6719 16.0874 27.6062 16.1749 27.5187L22.1249 21.6125L24.5749 24.0625L18.6249 30.0125C18.5374 30.1 18.4718 30.1948 18.428 30.2969C18.3843 30.399 18.3624 30.5083 18.3624 30.625C18.3624 30.8583 18.4572 31.0625 18.6468 31.2375C18.8364 31.4125 19.0478 31.5 19.2812 31.5ZM19.2374 35C18.1583 35 17.203 34.6427 16.3718 33.9281C15.5405 33.2135 15.052 32.3167 14.9062 31.2375C13.9145 31.0917 13.0833 30.6833 12.4124 30.0125C11.7416 29.3417 11.3333 28.5104 11.1874 27.5187C10.1958 27.3729 9.3718 26.9573 8.71555 26.2719C8.0593 25.5865 7.65825 24.7625 7.51242 23.8C6.40409 23.6542 5.49992 23.1729 4.79992 22.3562C4.09992 21.5396 3.74992 20.5771 3.74992 19.4688C3.74992 18.8854 3.8593 18.324 4.07805 17.7844C4.2968 17.2448 4.61034 16.7708 5.01867 16.3625L15.1687 6.25625L20.8999 11.9875C20.9583 12.075 21.0458 12.1406 21.1624 12.1844C21.2791 12.2281 21.3958 12.25 21.5124 12.25C21.7749 12.25 21.9937 12.1698 22.1687 12.0094C22.3437 11.849 22.4312 11.6375 22.4312 11.375C22.4312 11.2583 22.4093 11.1417 22.3655 11.025C22.3218 10.9083 22.2562 10.8208 22.1687 10.7625L15.9124 4.50625C15.5916 4.15625 15.2197 3.90104 14.7968 3.74062C14.3739 3.58021 13.9291 3.5 13.4624 3.5C13.0249 3.5 12.5874 3.58021 12.1499 3.74062C11.7124 3.90104 11.3187 4.15625 10.9687 4.50625L4.79992 10.7188C4.53742 10.9812 4.31867 11.2875 4.14367 11.6375C3.96867 11.9875 3.85201 12.3375 3.79367 12.6875C3.73534 13.0375 3.73534 13.3948 3.79367 13.7594C3.85201 14.124 3.96867 14.4667 4.14367 14.7875L1.60617 17.325C1.11034 16.6542 0.745755 15.9177 0.512422 15.1156C0.279089 14.3135 0.191589 13.5042 0.249922 12.6875C0.308255 11.8708 0.512422 11.076 0.862422 10.3031C1.21242 9.53021 1.69367 8.8375 2.30617 8.225L8.47492 2.05625C9.17492 1.38542 9.95513 0.875 10.8155 0.525C11.676 0.175 12.5583 0 13.4624 0C14.3666 0 15.2489 0.175 16.1093 0.525C16.9697 0.875 17.7353 1.38542 18.4062 2.05625L18.8874 2.5375L19.3687 2.05625C20.0687 1.38542 20.8489 0.875 21.7093 0.525C22.5697 0.175 23.452 0 24.3562 0C25.2603 0 26.1426 0.175 27.003 0.525C27.8635 0.875 28.6291 1.38542 29.2999 2.05625L36.6937 9.45C37.3645 10.1208 37.8749 10.8938 38.2249 11.7688C38.5749 12.6438 38.7499 13.5333 38.7499 14.4375C38.7499 15.3417 38.5749 16.224 38.2249 17.0844C37.8749 17.9448 37.3645 18.7104 36.6937 19.3813L22.3437 33.6875C21.9353 34.0958 21.4614 34.4167 20.9218 34.65C20.3822 34.8833 19.8208 35 19.2374 35Z" fill="white"/>
</svg>
