<svg width="29" height="35" viewBox="0 0 29 35" fill="none" xmlns="http://www.w3.org/2000/svg">
<path d="M11.8516 23.625H17.1016V19.25H21.4766V14H17.1016V9.625H11.8516V14H7.47656V19.25H11.8516V23.625ZM14.4766 35C10.4224 33.9792 7.07552 31.6531 4.43594 28.0219C1.79635 24.3906 0.476562 20.3583 0.476562 15.925V5.25L14.4766 0L28.4766 5.25V15.925C28.4766 20.3583 27.1568 24.3906 24.5172 28.0219C21.8776 31.6531 18.5307 33.9792 14.4766 35ZM14.4766 31.325C17.5099 30.3625 20.0182 28.4375 22.0016 25.55C23.9849 22.6625 24.9766 19.4542 24.9766 15.925V7.65625L14.4766 3.71875L3.97656 7.65625V15.925C3.97656 19.4542 4.96823 22.6625 6.95156 25.55C8.9349 28.4375 11.4432 30.3625 14.4766 31.325Z" fill="white"/>
</svg>
