<svg width="25" height="24" viewBox="0 0 25 24" fill="none" xmlns="http://www.w3.org/2000/svg">
<circle cx="12.5" cy="12" r="12" fill="#5EB3F8"/>
<path d="M12.5007 12.0013C12.959 12.0013 13.3515 11.8382 13.6782 11.5121C14.0048 11.186 14.1679 10.7935 14.1673 10.3346C14.1673 9.8763 14.0043 9.48408 13.6782 9.15797C13.352 8.83186 12.9595 8.66852 12.5007 8.66797C12.0423 8.66797 11.6501 8.8313 11.324 9.15797C10.9979 9.48463 10.8345 9.87686 10.834 10.3346C10.834 10.793 10.9973 11.1855 11.324 11.5121C11.6507 11.8388 12.0429 12.0019 12.5007 12.0013ZM12.5007 18.1263C14.1951 16.5707 15.452 15.1577 16.2715 13.8871C17.0909 12.6166 17.5006 11.488 17.5007 10.5013C17.5007 8.98741 17.0182 7.74797 16.0532 6.78297C15.0882 5.81797 13.904 5.33519 12.5007 5.33464C11.0979 5.33464 9.91398 5.81741 8.94898 6.78297C7.98398 7.74852 7.50121 8.98797 7.50065 10.5013C7.50065 11.4874 7.91037 12.616 8.72982 13.8871C9.54926 15.1582 10.8062 16.5713 12.5007 18.1263ZM12.5007 20.3346C10.2645 18.4319 8.59454 16.6646 7.49065 15.033C6.38676 13.4013 5.83454 11.8907 5.83398 10.5013C5.83398 8.41797 6.50426 6.75825 7.84482 5.52214C9.18537 4.28602 10.7373 3.66797 12.5007 3.66797C14.2645 3.66797 15.8168 4.28602 17.1573 5.52214C18.4979 6.75825 19.1679 8.41797 19.1673 10.5013C19.1673 11.8902 18.6154 13.4007 17.5115 15.033C16.4076 16.6652 14.7373 18.4324 12.5007 20.3346Z" fill="#F4F6F7"/>
</svg>
