<svg width="38" height="30" viewBox="0 0 38 30" fill="none" xmlns="http://www.w3.org/2000/svg">
<path d="M4.24375 12.5C4.65208 11.45 4.71771 10.5167 4.44063 9.7C4.16354 8.88333 3.68958 8.06667 3.01875 7.25C2.05625 6.08333 1.42188 4.98229 1.11563 3.94687C0.809375 2.91146 0.758333 1.67917 0.9625 0.25H4.375C4.14167 1.35833 4.10521 2.2625 4.26563 2.9625C4.42604 3.6625 4.84167 4.42083 5.5125 5.2375C6.62083 6.57917 7.32813 7.76771 7.63438 8.80312C7.94063 9.83854 7.94792 11.0708 7.65625 12.5H4.24375ZM11.2438 12.5C11.6521 11.45 11.725 10.5167 11.4625 9.7C11.2 8.88333 10.7333 8.06667 10.0625 7.25C9.1 6.08333 8.45833 4.98229 8.1375 3.94687C7.81667 2.91146 7.75833 1.67917 7.9625 0.25H11.375C11.1417 1.35833 11.1052 2.2625 11.2656 2.9625C11.426 3.6625 11.8417 4.42083 12.5125 5.2375C13.6208 6.57917 14.3281 7.76771 14.6344 8.80312C14.9406 9.83854 14.9479 11.0708 14.6563 12.5H11.2438ZM18.2438 12.5C18.6521 11.45 18.725 10.5167 18.4625 9.7C18.2 8.88333 17.7333 8.06667 17.0625 7.25C16.1 6.08333 15.4583 4.98229 15.1375 3.94687C14.8167 2.91146 14.7583 1.67917 14.9625 0.25H18.375C18.1417 1.35833 18.1052 2.2625 18.2656 2.9625C18.426 3.6625 18.8417 4.42083 19.5125 5.2375C20.6208 6.57917 21.3281 7.76771 21.6344 8.80312C21.9406 9.83854 21.9479 11.0708 21.6563 12.5H18.2438ZM5.25 30C3.79167 30 2.55208 29.4896 1.53125 28.4688C0.510417 27.4479 0 26.2083 0 24.75V16H24.5438C24.6896 15.0083 25.0833 14.1406 25.725 13.3969C26.3667 12.6531 27.1542 12.1208 28.0875 11.8L36.1813 9.0875L37.275 12.4125L29.1813 15.125C28.8313 15.2417 28.5469 15.4531 28.3281 15.7594C28.1094 16.0656 28 16.4083 28 16.7875V24.75C28 26.2083 27.4896 27.4479 26.4688 28.4688C25.4479 29.4896 24.2083 30 22.75 30H5.25ZM5.25 26.5H22.75C23.2458 26.5 23.6615 26.3323 23.9969 25.9969C24.3323 25.6615 24.5 25.2458 24.5 24.75V19.5H3.5V24.75C3.5 25.2458 3.66771 25.6615 4.00313 25.9969C4.33854 26.3323 4.75417 26.5 5.25 26.5Z" fill="white"/>
</svg>
