<svg width="43" height="43" viewBox="0 0 43 43" fill="none" xmlns="http://www.w3.org/2000/svg">
<path d="M28.5 23.25L21.2375 16.1625C20.3333 15.2875 19.5677 14.3177 18.9406 13.2531C18.3135 12.1885 18 11.0292 18 9.775C18 8.17083 18.5615 6.80729 19.6844 5.68438C20.8073 4.56146 22.1708 4 23.775 4C24.7083 4 25.5833 4.19687 26.4 4.59062C27.2167 4.98438 27.9167 5.51667 28.5 6.1875C29.0833 5.51667 29.7833 4.98438 30.6 4.59062C31.4167 4.19687 32.2917 4 33.225 4C34.8292 4 36.1927 4.56146 37.3156 5.68438C38.4385 6.80729 39 8.17083 39 9.775C39 11.0292 38.6938 12.1885 38.0812 13.2531C37.4688 14.3177 36.7104 15.2875 35.8063 16.1625L28.5 23.25ZM28.5 18.35L33.2688 13.6687C33.8229 13.1146 34.3333 12.524 34.8 11.8969C35.2667 11.2698 35.5 10.5625 35.5 9.775C35.5 9.13333 35.2812 8.59375 34.8438 8.15625C34.4062 7.71875 33.8667 7.5 33.225 7.5C32.8167 7.5 32.4302 7.58021 32.0656 7.74063C31.701 7.90104 31.3875 8.14167 31.125 8.4625L28.5 11.6125L25.875 8.4625C25.6125 8.14167 25.299 7.90104 24.9344 7.74063C24.5698 7.58021 24.1833 7.5 23.775 7.5C23.1333 7.5 22.5938 7.71875 22.1562 8.15625C21.7188 8.59375 21.5 9.13333 21.5 9.775C21.5 10.5625 21.7333 11.2698 22.2 11.8969C22.6667 12.524 23.1771 13.1146 23.7313 13.6687L28.5 18.35ZM12.75 32.875L24.9125 36.2L35.325 32.9625C35.1792 32.7 34.9677 32.474 34.6906 32.2844C34.4135 32.0948 34.1 32 33.75 32H24.9125C24.125 32 23.4979 31.9708 23.0312 31.9125C22.5646 31.8542 22.0833 31.7375 21.5875 31.5625L17.5188 30.2063L18.4813 26.7938L22.025 27.975C22.5208 28.1208 23.1042 28.2375 23.775 28.325C24.4458 28.4125 25.4375 28.4708 26.75 28.5C26.75 28.1792 26.6552 27.8729 26.4656 27.5813C26.276 27.2896 26.05 27.1 25.7875 27.0125L15.55 23.25H12.75V32.875ZM2.25 39V19.75H15.55C15.7542 19.75 15.9583 19.7719 16.1625 19.8156C16.3667 19.8594 16.5563 19.9104 16.7313 19.9688L27.0125 23.775C27.975 24.125 28.7552 24.7375 29.3531 25.6125C29.951 26.4875 30.25 27.45 30.25 28.5H33.75C35.2083 28.5 36.4479 28.9812 37.4688 29.9438C38.4896 30.9062 39 32.175 39 33.75V35.5L25 39.875L12.75 36.4625V39H2.25ZM5.75 35.5H9.25V23.25H5.75V35.5Z" fill="white"/>
</svg>
