<svg width="42" height="43" viewBox="0 0 42 43" fill="none" xmlns="http://www.w3.org/2000/svg">
<path d="M5.25 30.25H12.425C11.9292 29.7542 11.4698 29.2146 11.0469 28.6313C10.624 28.0479 10.2521 27.4208 9.93125 26.75H5.25V30.25ZM21 30.25C23.4208 30.25 25.4844 29.3969 27.1906 27.6906C28.8969 25.9844 29.75 23.9208 29.75 21.5C29.75 19.0792 28.8969 17.0156 27.1906 15.3094C25.4844 13.6031 23.4208 12.75 21 12.75C18.5792 12.75 16.5156 13.6031 14.8094 15.3094C13.1031 17.0156 12.25 19.0792 12.25 21.5C12.25 23.9208 13.1031 25.9844 14.8094 27.6906C16.5156 29.3969 18.5792 30.25 21 30.25ZM32.0688 16.25H36.75V12.75H29.575C30.0708 13.2458 30.5302 13.7854 30.9531 14.3688C31.376 14.9521 31.7479 15.5792 32.0688 16.25ZM1.75 35.5V21.5H5.25V23.25H8.88125C8.82292 22.9583 8.78646 22.674 8.77187 22.3969C8.75729 22.1198 8.75 21.8208 8.75 21.5C8.75 18.0875 9.93854 15.1927 12.3156 12.8156C14.6927 10.4385 17.5875 9.25 21 9.25H36.75V7.5H40.25V21.5H36.75V19.75H33.1187C33.1771 20.0417 33.2135 20.326 33.2281 20.6031C33.2427 20.8802 33.25 21.1792 33.25 21.5C33.25 24.9125 32.0615 27.8073 29.6844 30.1844C27.3073 32.5615 24.4125 33.75 21 33.75H5.25V35.5H1.75ZM21 26.75C20.0375 26.75 19.2135 26.4073 18.5281 25.7219C17.8427 25.0365 17.5 24.2125 17.5 23.25C17.5 22.5792 17.6385 21.9156 17.9156 21.2594C18.1927 20.6031 18.725 19.6625 19.5125 18.4375L21 16.25L22.4875 18.4375C23.275 19.6625 23.8073 20.6031 24.0844 21.2594C24.3615 21.9156 24.5 22.5792 24.5 23.25C24.5 24.2125 24.1573 25.0365 23.4719 25.7219C22.7865 26.4073 21.9625 26.75 21 26.75Z" fill="white"/>
</svg>
