<svg width="72" height="69" viewBox="0 0 72 69" fill="none" xmlns="http://www.w3.org/2000/svg">
<g filter="url(#filter0_d_11170_24)">
<rect x="4" width="64" height="60.2406" rx="30.1203" fill="#25D366"/>
<path d="M24 42.1203L25.687 35.9573C24.646 34.1533 24.099 32.1083 24.1 30.0113C24.103 23.4553 29.438 18.1203 35.993 18.1203C39.174 18.1213 42.16 19.3603 44.406 21.6083C46.6509 23.8563 47.8869 26.8443 47.8859 30.0223C47.8829 36.5793 42.548 41.9143 35.993 41.9143C34.003 41.9133 32.042 41.4143 30.305 40.4663L24 42.1203ZM30.597 38.3133C32.273 39.3083 33.873 39.9043 35.989 39.9053C41.437 39.9053 45.875 35.4713 45.878 30.0203C45.88 24.5583 41.463 20.1303 35.997 20.1283C30.545 20.1283 26.11 24.5623 26.108 30.0123C26.107 32.2373 26.759 33.9033 27.854 35.6463L26.855 39.2943L30.597 38.3133ZM41.984 32.8493C41.91 32.7253 41.712 32.6513 41.414 32.5023C41.117 32.3533 39.656 31.6343 39.383 31.5353C39.111 31.4363 38.913 31.3863 38.714 31.6843C38.516 31.9813 37.946 32.6513 37.773 32.8493C37.6 33.0473 37.426 33.0723 37.129 32.9233C36.832 32.7743 35.874 32.4613 34.739 31.4483C33.856 30.6603 33.259 29.6873 33.086 29.3893C32.913 29.0923 33.068 28.9313 33.216 28.7833C33.35 28.6503 33.513 28.4363 33.662 28.2623C33.813 28.0903 33.862 27.9663 33.962 27.7673C34.061 27.5693 34.012 27.3953 33.937 27.2463C33.862 27.0983 33.268 25.6353 33.021 25.0403C32.779 24.4613 32.534 24.5393 32.352 24.5303L31.782 24.5203C31.584 24.5203 31.262 24.5943 30.99 24.8923C30.718 25.1903 29.95 25.9083 29.95 27.3713C29.95 28.8343 31.015 30.2473 31.163 30.4453C31.312 30.6433 33.258 33.6453 36.239 34.9323C36.948 35.2383 37.502 35.4213 37.933 35.5583C38.645 35.7843 39.293 35.7523 39.805 35.6763C40.376 35.5913 41.563 34.9573 41.811 34.2633C42.059 33.5683 42.059 32.9733 41.984 32.8493Z" fill="white"/>
</g>
<defs>
<filter id="filter0_d_11170_24" x="0" y="0" width="72" height="68.2405" filterUnits="userSpaceOnUse" color-interpolation-filters="sRGB">
<feFlood flood-opacity="0" result="BackgroundImageFix"/>
<feColorMatrix in="SourceAlpha" type="matrix" values="0 0 0 0 0 0 0 0 0 0 0 0 0 0 0 0 0 0 127 0" result="hardAlpha"/>
<feOffset dy="4"/>
<feGaussianBlur stdDeviation="2"/>
<feComposite in2="hardAlpha" operator="out"/>
<feColorMatrix type="matrix" values="0 0 0 0 0.76 0 0 0 0 0.76 0 0 0 0 0.76 0 0 0 0.25 0"/>
<feBlend mode="normal" in2="BackgroundImageFix" result="effect1_dropShadow_11170_24"/>
<feBlend mode="normal" in="SourceGraphic" in2="effect1_dropShadow_11170_24" result="shape"/>
</filter>
</defs>
</svg>
